<svg xmlns="http://www.w3.org/2000/svg" width="16" height="15" viewBox="0 0 16 15"><g><g><path d="M15.292 5.11l-4.407-.412a.761.761 0 0 1-.631-.463L8.676.451c-.253-.624-1.15-.624-1.402 0L5.708 4.236a.745.745 0 0 1-.631.463L.67 5.11a.752.752 0 0 0-.429 1.31l3.32 2.886a.742.742 0 0 1 .24.737l-.997 4.045c-.151.638.543 1.162 1.124.825l3.674-2.136a.772.772 0 0 1 .77 0l3.675 2.136a.757.757 0 0 0 1.123-.825l-.984-4.045a.742.742 0 0 1 .24-.737l3.32-2.885c.48-.437.202-1.249-.454-1.311z"/><path fill="#6e774a" d="M15.292 5.11l-4.407-.412a.761.761 0 0 1-.631-.463L8.676.451c-.253-.624-1.15-.624-1.402 0L5.708 4.236a.745.745 0 0 1-.631.463L.67 5.11a.752.752 0 0 0-.429 1.31l3.32 2.886a.742.742 0 0 1 .24.737l-.997 4.045c-.151.638.543 1.162 1.124.825l3.674-2.136a.772.772 0 0 1 .77 0l3.675 2.136a.757.757 0 0 0 1.123-.825l-.984-4.045a.742.742 0 0 1 .24-.737l3.32-2.885c.48-.437.202-1.249-.454-1.311z"/></g></g></svg>