<svg xmlns="http://www.w3.org/2000/svg" width="27" height="19" viewBox="0 0 27 19"><g><g><path d="M27.005 14.94c0 2.242-1.807 4.06-4.035 4.06H4.04C1.81 19 .005 17.182.005 14.94V4.06c0-2.243 1.806-4.06 4.035-4.06h18.93c2.228 0 4.035 1.817 4.035 4.06zm-8.49-5.96l-7.71-5.111v10.222z"/><path fill="#6e774a" d="M27.005 14.94c0 2.242-1.807 4.06-4.035 4.06H4.04C1.81 19 .005 17.182.005 14.94V4.06c0-2.243 1.806-4.06 4.035-4.06h18.93c2.228 0 4.035 1.817 4.035 4.06zm-8.49-5.96l-7.71-5.111v10.222z"/></g></g></svg>