<svg xmlns="http://www.w3.org/2000/svg" width="11" height="21" viewBox="0 0 11 21"><g><g><path d="M10.586.004L7.947-.001c-2.964 0-4.88 2.029-4.88 5.168v2.384H.416A.422.422 0 0 0 0 7.979v3.452c0 .237.186.429.415.429h2.653v8.712c0 .236.185.428.414.428h3.461c.23 0 .415-.192.415-.428V11.86h3.102c.23 0 .415-.192.415-.429V7.98a.434.434 0 0 0-.12-.303.408.408 0 0 0-.294-.125H7.358V5.53c0-.972.225-1.464 1.45-1.464h1.777a.422.422 0 0 0 .415-.43V.433a.422.422 0 0 0-.414-.428z"/><path fill="#6e774a" d="M10.586.004L7.947-.001c-2.964 0-4.88 2.029-4.88 5.168v2.384H.416A.422.422 0 0 0 0 7.979v3.452c0 .237.186.429.415.429h2.653v8.712c0 .236.185.428.414.428h3.461c.23 0 .415-.192.415-.428V11.86h3.102c.23 0 .415-.192.415-.429V7.98a.434.434 0 0 0-.12-.303.408.408 0 0 0-.294-.125H7.358V5.53c0-.972.225-1.464 1.45-1.464h1.777a.422.422 0 0 0 .415-.43V.433a.422.422 0 0 0-.414-.428z"/></g></g></svg>