<svg xmlns="http://www.w3.org/2000/svg" width="22" height="18" viewBox="0 0 22 18"><g><g><path d="M21.393.332c-.873.52-1.84.899-2.868 1.104A4.484 4.484 0 0 0 15.232 0c-2.493 0-4.514 2.035-4.514 4.544 0 .356.04.703.117 1.035C7.085 5.39 3.758 3.58 1.532.83a4.54 4.54 0 0 0-.61 2.285c0 1.577.798 2.968 2.007 3.783a4.486 4.486 0 0 1-2.044-.571v.057a4.543 4.543 0 0 0 3.62 4.457c-.378.103-.777.16-1.189.16a4.53 4.53 0 0 1-.85-.083 4.524 4.524 0 0 0 4.215 3.157 9.016 9.016 0 0 1-5.604 1.945c-.365 0-.724-.022-1.077-.062A12.719 12.719 0 0 0 6.918 18C15.22 18 19.76 11.074 19.76 5.068l-.015-.59A9.108 9.108 0 0 0 22 2.13a8.977 8.977 0 0 1-2.591.716A4.565 4.565 0 0 0 21.393.332z"/><path fill="#6e774a" d="M21.393.332c-.873.52-1.84.899-2.868 1.104A4.484 4.484 0 0 0 15.232 0c-2.493 0-4.514 2.035-4.514 4.544 0 .356.04.703.117 1.035C7.085 5.39 3.758 3.58 1.532.83a4.54 4.54 0 0 0-.61 2.285c0 1.577.798 2.968 2.007 3.783a4.486 4.486 0 0 1-2.044-.571v.057a4.543 4.543 0 0 0 3.62 4.457c-.378.103-.777.16-1.189.16a4.53 4.53 0 0 1-.85-.083 4.524 4.524 0 0 0 4.215 3.157 9.016 9.016 0 0 1-5.604 1.945c-.365 0-.724-.022-1.077-.062A12.719 12.719 0 0 0 6.918 18C15.22 18 19.76 11.074 19.76 5.068l-.015-.59A9.108 9.108 0 0 0 22 2.13a8.977 8.977 0 0 1-2.591.716A4.565 4.565 0 0 0 21.393.332z"/></g></g></svg>